<svg width="432" height="432" viewBox="0 0 432 432" fill="none" xmlns="http://www.w3.org/2000/svg">
<g clip-path="url(#clip0)">
<path opacity="0.04" d="M174.947 375.13L209.607 410.101L244.267 375.13L209.607 340.159L174.947 375.13Z" fill="white"/>
<path opacity="0.04" d="M379.001 408.999C369.165 408.999 361.191 417.044 361.191 426.969C361.191 436.893 369.165 444.938 379.001 444.938C388.838 444.938 396.812 436.893 396.812 426.969C396.812 417.044 388.838 408.999 379.001 408.999Z" fill="white"/>
<path opacity="0.04" fill-rule="evenodd" clip-rule="evenodd" d="M77.7682 488.299L25.6374 504.599L-77.1304 233.576L-24.9991 217.276C-17.0419 214.788 -8.37017 218.628 -5.63025 225.854C-4.07827 229.948 -4.72501 234.464 -7.37809 238.06C-17.9406 252.379 -13.7208 271.762 2.04728 281.353C4.64813 282.936 7.47481 284.188 10.449 285.075L12.2263 285.605C28.4745 290.451 37.32 306.341 31.9832 321.095C30.9113 324.059 29.3042 326.839 27.2273 329.323C16.8862 341.693 19.5457 359.333 33.1674 368.723C35.903 370.609 38.9652 372.069 42.2283 373.042L45.783 374.102C62.0312 378.948 70.877 394.838 65.5399 409.593C64.4681 412.556 62.8609 415.336 60.7841 417.82C50.443 430.19 53.1024 447.83 66.724 457.22C69.46 459.106 72.5221 460.566 75.7852 461.539L77.5624 462.069C85.5583 464.454 89.9104 472.273 87.2843 479.533C85.7971 483.646 82.2756 486.89 77.7682 488.299Z" fill="white"/>
<path fill-rule="evenodd" clip-rule="evenodd" d="M7.45563 166.783C5.69086 166.783 4.26025 168.227 4.26025 170.007C4.26025 171.787 5.69086 173.231 7.45563 173.231C9.22038 173.231 10.651 171.787 10.651 170.007C10.651 168.227 9.22038 166.783 7.45563 166.783Z" fill="white" fill-opacity="0.04"/>
<path fill-rule="evenodd" clip-rule="evenodd" d="M29.4678 166.783C27.7031 166.783 26.2725 168.227 26.2725 170.007C26.2725 171.787 27.7031 173.231 29.4678 173.231C31.2326 173.231 32.6632 171.787 32.6632 170.007C32.6632 168.227 31.2326 166.783 29.4678 166.783Z" fill="white" fill-opacity="0.04"/>
<path fill-rule="evenodd" clip-rule="evenodd" d="M51.48 166.783C49.7153 166.783 48.2847 168.227 48.2847 170.007C48.2847 171.787 49.7153 173.231 51.48 173.231C53.2448 173.231 54.6754 171.787 54.6754 170.007C54.6754 168.227 53.2448 166.783 51.48 166.783Z" fill="white" fill-opacity="0.04"/>
<path fill-rule="evenodd" clip-rule="evenodd" d="M7.45563 144.573C5.69086 144.573 4.26025 146.017 4.26025 147.797C4.26025 149.578 5.69086 151.021 7.45563 151.021C9.22038 151.021 10.651 149.578 10.651 147.797C10.651 146.017 9.22038 144.573 7.45563 144.573Z" fill="white" fill-opacity="0.04"/>
<path fill-rule="evenodd" clip-rule="evenodd" d="M29.4678 144.573C27.7031 144.573 26.2725 146.017 26.2725 147.797C26.2725 149.578 27.7031 151.021 29.4678 151.021C31.2326 151.021 32.6632 149.578 32.6632 147.797C32.6632 146.017 31.2326 144.573 29.4678 144.573Z" fill="white" fill-opacity="0.04"/>
<path fill-rule="evenodd" clip-rule="evenodd" d="M51.48 144.573C49.7153 144.573 48.2847 146.017 48.2847 147.797C48.2847 149.578 49.7153 151.021 51.48 151.021C53.2448 151.021 54.6754 149.578 54.6754 147.797C54.6754 146.017 53.2448 144.573 51.48 144.573Z" fill="white" fill-opacity="0.04"/>
<path fill-rule="evenodd" clip-rule="evenodd" d="M7.45563 122.363C5.69086 122.363 4.26025 123.806 4.26025 125.587C4.26025 127.368 5.69086 128.812 7.45563 128.812C9.22038 128.812 10.651 127.368 10.651 125.587C10.651 123.806 9.22038 122.363 7.45563 122.363Z" fill="white" fill-opacity="0.04"/>
<path fill-rule="evenodd" clip-rule="evenodd" d="M29.4678 122.363C27.7031 122.363 26.2725 123.806 26.2725 125.587C26.2725 127.368 27.7031 128.812 29.4678 128.812C31.2326 128.812 32.6632 127.368 32.6632 125.587C32.6632 123.806 31.2326 122.363 29.4678 122.363Z" fill="white" fill-opacity="0.04"/>
<path fill-rule="evenodd" clip-rule="evenodd" d="M51.48 122.363C49.7153 122.363 48.2847 123.806 48.2847 125.587C48.2847 127.368 49.7153 128.812 51.48 128.812C53.2448 128.812 54.6754 127.368 54.6754 125.587C54.6754 123.806 53.2448 122.363 51.48 122.363Z" fill="white" fill-opacity="0.04"/>
<path fill-rule="evenodd" clip-rule="evenodd" d="M7.45563 100.153C5.69086 100.153 4.26025 101.597 4.26025 103.378C4.26025 105.158 5.69086 106.601 7.45563 106.601C9.22038 106.601 10.651 105.158 10.651 103.378C10.651 101.597 9.22038 100.153 7.45563 100.153Z" fill="white" fill-opacity="0.04"/>
<path fill-rule="evenodd" clip-rule="evenodd" d="M29.4678 100.153C27.7031 100.153 26.2725 101.597 26.2725 103.378C26.2725 105.158 27.7031 106.601 29.4678 106.601C31.2326 106.601 32.6632 105.158 32.6632 103.378C32.6632 101.597 31.2326 100.153 29.4678 100.153Z" fill="white" fill-opacity="0.04"/>
<path fill-rule="evenodd" clip-rule="evenodd" d="M51.48 100.153C49.7153 100.153 48.2847 101.597 48.2847 103.378C48.2847 105.158 49.7153 106.601 51.48 106.601C53.2448 106.601 54.6754 105.158 54.6754 103.378C54.6754 101.597 53.2448 100.153 51.48 100.153Z" fill="white" fill-opacity="0.04"/>
<path fill-rule="evenodd" clip-rule="evenodd" d="M7.45563 77.9436C5.69086 77.9436 4.26025 79.3868 4.26025 81.1674C4.26025 82.9481 5.69086 84.3912 7.45563 84.3912C9.22038 84.3912 10.651 82.9481 10.651 81.1674C10.651 79.3868 9.22038 77.9436 7.45563 77.9436Z" fill="white" fill-opacity="0.04"/>
<path fill-rule="evenodd" clip-rule="evenodd" d="M29.4678 77.9436C27.7031 77.9436 26.2725 79.3868 26.2725 81.1674C26.2725 82.9481 27.7031 84.3912 29.4678 84.3912C31.2326 84.3912 32.6632 82.9481 32.6632 81.1674C32.6632 79.3868 31.2326 77.9436 29.4678 77.9436Z" fill="white" fill-opacity="0.04"/>
<path fill-rule="evenodd" clip-rule="evenodd" d="M51.48 77.9436C49.7153 77.9436 48.2847 79.3868 48.2847 81.1674C48.2847 82.9481 49.7153 84.3912 51.48 84.3912C53.2448 84.3912 54.6754 82.9481 54.6754 81.1674C54.6754 79.3868 53.2448 77.9436 51.48 77.9436Z" fill="white" fill-opacity="0.04"/>
<path fill-rule="evenodd" clip-rule="evenodd" d="M7.45563 55.7335C5.69086 55.7335 4.26025 57.1769 4.26025 58.9575C4.26025 60.7381 5.69086 62.1815 7.45563 62.1815C9.22038 62.1815 10.651 60.7381 10.651 58.9575C10.651 57.1769 9.22038 55.7335 7.45563 55.7335Z" fill="white" fill-opacity="0.04"/>
<path fill-rule="evenodd" clip-rule="evenodd" d="M29.4678 55.7335C27.7031 55.7335 26.2725 57.1769 26.2725 58.9575C26.2725 60.7381 27.7031 62.1815 29.4678 62.1815C31.2326 62.1815 32.6632 60.7381 32.6632 58.9575C32.6632 57.1769 31.2326 55.7335 29.4678 55.7335Z" fill="white" fill-opacity="0.04"/>
<path fill-rule="evenodd" clip-rule="evenodd" d="M51.48 55.7335C49.7153 55.7335 48.2847 57.1769 48.2847 58.9575C48.2847 60.7381 49.7153 62.1815 51.48 62.1815C53.2448 62.1815 54.6754 60.7381 54.6754 58.9575C54.6754 57.1769 53.2448 55.7335 51.48 55.7335Z" fill="white" fill-opacity="0.04"/>
<path fill-rule="evenodd" clip-rule="evenodd" d="M7.45563 33.5236C5.69086 33.5236 4.26025 34.9669 4.26025 36.7475C4.26025 38.5281 5.69086 39.9716 7.45563 39.9716C9.22038 39.9716 10.651 38.5281 10.651 36.7475C10.651 34.9669 9.22038 33.5236 7.45563 33.5236Z" fill="white" fill-opacity="0.04"/>
<path fill-rule="evenodd" clip-rule="evenodd" d="M29.4678 33.5236C27.7031 33.5236 26.2725 34.9669 26.2725 36.7475C26.2725 38.5281 27.7031 39.9716 29.4678 39.9716C31.2326 39.9716 32.6632 38.5281 32.6632 36.7475C32.6632 34.9669 31.2326 33.5236 29.4678 33.5236Z" fill="white" fill-opacity="0.04"/>
<path fill-rule="evenodd" clip-rule="evenodd" d="M51.48 33.5236C49.7153 33.5236 48.2847 34.9669 48.2847 36.7475C48.2847 38.5281 49.7153 39.9716 51.48 39.9716C53.2448 39.9716 54.6754 38.5281 54.6754 36.7475C54.6754 34.9669 53.2448 33.5236 51.48 33.5236Z" fill="white" fill-opacity="0.04"/>
</g>
<defs>
<clipPath id="clip0">
<rect width="432" height="432" fill="white"/>
</clipPath>
</defs>
</svg>