<svg width="432" height="432" viewBox="0 0 432 432" fill="none" xmlns="http://www.w3.org/2000/svg">
<g clip-path="url(#clip0)">
<path opacity="0.04" d="M368.904 425.326L389.052 445.657L409.2 425.326L389.052 404.996L368.904 425.326Z" fill="white"/>
<path opacity="0.04" d="M325.848 372.339C316.01 372.339 308.034 380.385 308.034 390.309C308.034 400.234 316.01 408.279 325.848 408.279C335.686 408.279 343.661 400.234 343.661 390.309C343.661 380.385 335.686 372.339 325.848 372.339Z" fill="white"/>
<path opacity="0.04" fill-rule="evenodd" clip-rule="evenodd" d="M423.282 130.649C423.282 130.649 448.68 121.625 464.874 131.4C481.061 141.174 481.149 343.654 460.137 347.601C439.125 351.55 418.552 346.851 418.552 346.851C412.203 346.736 407.162 341.971 407.291 336.206C407.358 332.941 409.112 329.895 412.014 327.973C423.593 320.323 426.15 305.599 417.722 295.086C416.332 293.352 414.693 291.799 412.837 290.469L411.73 289.674C401.609 282.409 399.889 269.069 407.891 259.876C409.497 258.031 411.427 256.441 413.613 255.171C424.476 248.849 427.634 235.727 420.671 225.863C419.274 223.882 417.527 222.126 415.489 220.667L413.276 219.078C403.154 211.813 401.434 198.472 409.436 189.28C411.042 187.434 412.972 185.844 415.158 184.574C426.022 178.252 429.179 165.131 422.216 155.267C420.819 153.286 419.072 151.529 417.034 150.071L415.927 149.276C410.948 145.701 410.104 139.136 414.038 134.613C416.265 132.051 419.692 130.584 423.282 130.649Z" fill="white"/>
<path fill-rule="evenodd" clip-rule="evenodd" d="M150.453 424.406C148.692 424.406 147.261 425.849 147.261 427.63C147.261 429.411 148.692 430.854 150.453 430.854C152.221 430.854 153.651 429.411 153.651 427.63C153.651 425.849 152.221 424.406 150.453 424.406Z" fill="white" fill-opacity="0.04"/>
<path fill-rule="evenodd" clip-rule="evenodd" d="M172.463 424.406C170.702 424.406 169.271 425.849 169.271 427.63C169.271 429.411 170.702 430.854 172.463 430.854C174.231 430.854 175.661 429.411 175.661 427.63C175.661 425.849 174.231 424.406 172.463 424.406Z" fill="white" fill-opacity="0.04"/>
<path fill-rule="evenodd" clip-rule="evenodd" d="M194.481 424.406C192.713 424.406 191.282 425.849 191.282 427.63C191.282 429.411 192.713 430.854 194.481 430.854C196.242 430.854 197.672 429.411 197.672 427.63C197.672 425.849 196.242 424.406 194.481 424.406Z" fill="white" fill-opacity="0.04"/>
<path fill-rule="evenodd" clip-rule="evenodd" d="M216.491 424.406C214.723 424.406 213.292 425.849 213.292 427.63C213.292 429.411 214.723 430.854 216.491 430.854C218.259 430.854 219.689 429.411 219.689 427.63C219.689 425.849 218.259 424.406 216.491 424.406Z" fill="white" fill-opacity="0.04"/>
<path fill-rule="evenodd" clip-rule="evenodd" d="M128.442 424.406C126.675 424.406 125.244 425.849 125.244 427.63C125.244 429.411 126.675 430.854 128.442 430.854C130.204 430.854 131.634 429.411 131.634 427.63C131.634 425.849 130.204 424.406 128.442 424.406Z" fill="white" fill-opacity="0.04"/>
<path fill-rule="evenodd" clip-rule="evenodd" d="M106.425 424.406C104.664 424.406 103.234 425.849 103.234 427.63C103.234 429.411 104.664 430.854 106.425 430.854C108.193 430.854 109.624 429.411 109.624 427.63C109.624 425.849 108.193 424.406 106.425 424.406Z" fill="white" fill-opacity="0.04"/>
<path fill-rule="evenodd" clip-rule="evenodd" d="M84.4152 424.406C82.6541 424.406 81.2236 425.849 81.2236 427.63C81.2236 429.411 82.6541 430.854 84.4152 430.854C86.183 430.854 87.6135 429.411 87.6135 427.63C87.6135 425.849 86.183 424.406 84.4152 424.406Z" fill="white" fill-opacity="0.04"/>
<path fill-rule="evenodd" clip-rule="evenodd" d="M150.453 402.196C148.692 402.196 147.261 403.639 147.261 405.42C147.261 407.2 148.692 408.644 150.453 408.644C152.221 408.644 153.651 407.2 153.651 405.42C153.651 403.639 152.221 402.196 150.453 402.196Z" fill="white" fill-opacity="0.04"/>
<path fill-rule="evenodd" clip-rule="evenodd" d="M172.463 402.196C170.702 402.196 169.271 403.639 169.271 405.42C169.271 407.2 170.702 408.644 172.463 408.644C174.231 408.644 175.661 407.2 175.661 405.42C175.661 403.639 174.231 402.196 172.463 402.196Z" fill="white" fill-opacity="0.04"/>
<path fill-rule="evenodd" clip-rule="evenodd" d="M194.481 402.196C192.713 402.196 191.282 403.639 191.282 405.42C191.282 407.2 192.713 408.644 194.481 408.644C196.242 408.644 197.672 407.2 197.672 405.42C197.672 403.639 196.242 402.196 194.481 402.196Z" fill="white" fill-opacity="0.04"/>
<path fill-rule="evenodd" clip-rule="evenodd" d="M216.491 402.196C214.723 402.196 213.292 403.639 213.292 405.42C213.292 407.2 214.723 408.644 216.491 408.644C218.259 408.644 219.689 407.2 219.689 405.42C219.689 403.639 218.259 402.196 216.491 402.196Z" fill="white" fill-opacity="0.04"/>
<path fill-rule="evenodd" clip-rule="evenodd" d="M128.442 402.196C126.675 402.196 125.244 403.639 125.244 405.42C125.244 407.2 126.675 408.644 128.442 408.644C130.204 408.644 131.634 407.2 131.634 405.42C131.634 403.639 130.204 402.196 128.442 402.196Z" fill="white" fill-opacity="0.04"/>
<path fill-rule="evenodd" clip-rule="evenodd" d="M106.425 402.196C104.664 402.196 103.234 403.639 103.234 405.42C103.234 407.2 104.664 408.644 106.425 408.644C108.193 408.644 109.624 407.2 109.624 405.42C109.624 403.639 108.193 402.196 106.425 402.196Z" fill="white" fill-opacity="0.04"/>
<path fill-rule="evenodd" clip-rule="evenodd" d="M84.4152 402.196C82.6541 402.196 81.2236 403.639 81.2236 405.42C81.2236 407.2 82.6541 408.644 84.4152 408.644C86.183 408.644 87.6135 407.2 87.6135 405.42C87.6135 403.639 86.183 402.196 84.4152 402.196Z" fill="white" fill-opacity="0.04"/>
<path fill-rule="evenodd" clip-rule="evenodd" d="M150.453 379.986C148.692 379.986 147.261 381.43 147.261 383.21C147.261 384.991 148.692 386.434 150.453 386.434C152.221 386.434 153.651 384.991 153.651 383.21C153.651 381.43 152.221 379.986 150.453 379.986Z" fill="white" fill-opacity="0.04"/>
<path fill-rule="evenodd" clip-rule="evenodd" d="M172.463 379.986C170.702 379.986 169.271 381.43 169.271 383.21C169.271 384.991 170.702 386.434 172.463 386.434C174.231 386.434 175.661 384.991 175.661 383.21C175.661 381.43 174.231 379.986 172.463 379.986Z" fill="white" fill-opacity="0.04"/>
<path fill-rule="evenodd" clip-rule="evenodd" d="M194.481 379.986C192.713 379.986 191.282 381.43 191.282 383.21C191.282 384.991 192.713 386.434 194.481 386.434C196.242 386.434 197.672 384.991 197.672 383.21C197.672 381.43 196.242 379.986 194.481 379.986Z" fill="white" fill-opacity="0.04"/>
<path fill-rule="evenodd" clip-rule="evenodd" d="M216.491 379.986C214.723 379.986 213.292 381.43 213.292 383.21C213.292 384.991 214.723 386.434 216.491 386.434C218.259 386.434 219.689 384.991 219.689 383.21C219.689 381.43 218.259 379.986 216.491 379.986Z" fill="white" fill-opacity="0.04"/>
<path fill-rule="evenodd" clip-rule="evenodd" d="M128.442 379.986C126.675 379.986 125.244 381.43 125.244 383.21C125.244 384.991 126.675 386.434 128.442 386.434C130.204 386.434 131.634 384.991 131.634 383.21C131.634 381.43 130.204 379.986 128.442 379.986Z" fill="white" fill-opacity="0.04"/>
<path fill-rule="evenodd" clip-rule="evenodd" d="M106.425 379.986C104.664 379.986 103.234 381.43 103.234 383.21C103.234 384.991 104.664 386.434 106.425 386.434C108.193 386.434 109.624 384.991 109.624 383.21C109.624 381.43 108.193 379.986 106.425 379.986Z" fill="white" fill-opacity="0.04"/>
<path fill-rule="evenodd" clip-rule="evenodd" d="M84.4152 379.986C82.6541 379.986 81.2236 381.43 81.2236 383.21C81.2236 384.991 82.6541 386.434 84.4152 386.434C86.183 386.434 87.6135 384.991 87.6135 383.21C87.6135 381.43 86.183 379.986 84.4152 379.986Z" fill="white" fill-opacity="0.04"/>
</g>
<defs>
<clipPath id="clip0">
<rect width="432" height="432" fill="white"/>
</clipPath>
</defs>
</svg>