<svg id="svg" xmlns="http://www.w3.org/2000/svg" xmlns:xlink="http://www.w3.org/1999/xlink" width="400" height="400" viewBox="0, 0, 400,400"><g id="svgg"><path id="path0" d="M192.188 0.687 C 172.048 7.286,166.494 31.809,181.793 46.579 L 185.938 50.580 185.938 65.134 L 185.938 79.688 149.959 79.688 C 100.739 79.688,91.143 82.414,77.668 100.222 C 65.816 115.886,66.436 108.720,66.420 230.273 L 66.406 333.594 200.000 333.594 L 333.594 333.594 333.580 230.273 C 333.564 108.720,334.184 115.886,322.332 100.222 C 308.857 82.414,299.261 79.688,250.041 79.688 L 214.063 79.688 214.063 64.622 L 214.063 49.556 216.454 48.143 C 225.909 42.558,229.751 25.882,224.217 14.449 C 219.091 3.860,203.261 -2.941,192.188 0.687 M157.730 149.728 C 174.191 157.772,177.775 179.419,164.714 191.910 C 148.911 207.026,123.210 197.577,120.640 175.707 C 118.352 156.246,140.016 141.072,157.730 149.728 M263.995 149.653 C 290.194 161.624,280.699 200.563,251.953 199.039 C 222.136 197.457,218.410 154.972,247.449 147.679 C 251.910 146.559,259.101 147.417,263.995 149.653 M20.626 160.864 C 18.865 161.663,16.579 163.501,15.548 164.948 L 13.672 167.578 13.672 213.281 L 13.672 258.984 15.548 261.614 C 22.039 270.717,36.802 268.032,39.809 257.202 C 41.120 252.484,40.834 172.262,39.493 168.503 C 36.748 160.805,28.293 157.382,20.626 160.864 M367.992 160.612 C 364.618 162.075,362.709 163.776,361.053 166.795 C 359.885 168.924,359.730 177.570,359.375 260.295 C 358.987 350.837,358.974 351.463,357.374 353.606 C 353.038 359.412,358.172 358.961,293.888 359.185 L 236.328 359.386 234.428 356.586 C 225.064 342.783,201.111 343.317,191.319 357.548 C 172.231 385.292,210.697 415.920,233.413 391.065 L 237.385 386.719 295.563 386.719 C 351.181 386.719,353.960 386.651,358.707 385.184 C 371.102 381.354,381.455 370.973,385.196 358.626 C 386.708 353.637,386.740 351.311,386.536 260.547 L 386.328 167.578 384.452 164.948 C 380.967 160.062,373.684 158.143,367.992 160.612 M264.675 256.472 C 276.602 262.756,279.213 268.643,279.560 290.039 L 279.824 306.250 200.000 306.250 L 120.176 306.250 120.440 290.039 C 120.811 267.169,125.193 259.172,139.844 254.627 C 140.918 254.294,168.516 254.083,201.172 254.159 L 260.547 254.297 264.675 256.472 " stroke="none" fill="#7289da" fill-rule="evenodd"></path></g></svg>